<svg xmlns="http://www.w3.org/2000/svg" xml:space="preserve" id="Icons" viewBox="0 0 32 32"><style>.st0{fill:none;stroke:#000;stroke-width:2px;stroke-linecap:round;stroke-linejoin:round;stroke-miterlimit:10}</style><path d="M9 29h14M13 23c0 2.1-.7 4.6-1.8 6M20.8 29c-1.1-1.4-1.8-3.9-1.8-6M16 20V10c0-1.7-1.3-3-3-3H7v10h6c1.7 0 3 1.3 3 3ZM16 20V10c0-1.7 1.3-3 3-3h6v10h-6c-1.7 0-3 1.3-3 3Z" class="st0"/><path d="M3 6v15c0 1.1.9 2 2 2h22c1.1 0 2-.9 2-2V6c0-1.1-.9-2-2-2H5c-1.1 0-2 .9-2 2" class="st0"/></svg>