<?xml version="1.0" encoding="utf-8"?><!-- Uploaded to: SVG Repo, www.svgrepo.com, Generator: SVG Repo Mixer Tools --><svg xmlns="http://www.w3.org/2000/svg" xmlns:xlink="http://www.w3.org/1999/xlink" version="1.1" id="Icons" viewBox="0 0 32 32" xml:space="preserve">
<style>.st0 {
  fill: none;
  stroke: #000;
  stroke-width: 2px;
  stroke-linecap: round;
  stroke-linejoin: round;
  stroke-miterlimit: 10;
}
</style>
<line class="st0" x1="9" y1="29" x2="23" y2="29"/>
<path class="st0" d="M13,23c0,2.1-0.7,4.6-1.8,6"/>
<path class="st0" d="M20.8,29c-1.1-1.4-1.8-3.9-1.8-6"/>
<path class="st0" d="M16,20V10c0-1.7-1.3-3-3-3H7v10h6C14.7,17,16,18.3,16,20L16,20"/>
<path class="st0" d="M16,20V10c0-1.7,1.3-3,3-3h6v10h-6C17.3,17,16,18.3,16,20L16,20"/>
<path class="st0" d="M3,6v15c0,1.1,0.9,2,2,2h22c1.1,0,2-0.9,2-2V6c0-1.1-0.9-2-2-2H5C3.9,4,3,4.9,3,6z"/>
</svg>