<svg xmlns="http://www.w3.org/2000/svg" viewBox="0 0 121.34 175.58"><g stroke="#000" stroke-dashoffset="1.5" stroke-linecap="round" stroke-linejoin="round"><path fill="#fff" stroke-width="2" d="M35.88 34.11c-7.59 2.696-5.93 11.065.714 10.714ZM93.92 42.26c7.67-2.463 6.265-10.878-.386-10.731Z"/><path fill="#fff" stroke-width="2" d="m36.95 37.32-1.174 22.2c-.442 6.601-.884 7.455-1.326 10.657 14.581 3.581 30.528 2.309 49.594.474 4.685-.451 7.903-1.779 11.835-2.974l-.891-9.99-2.68-27.867Z"/><path fill="#fff" stroke-width="2" d="M56.23 70.18c-.595 4.286-3.69 18.929-4.286 23.214 6.905 7.313 19.524 3.528 26.43-.357-.477-5.637-4.167-21.025-4.644-25.714Z"/><path fill="#fff" stroke-width="2" d="M94.45 37.68c.406 16.354-9.728 29.916-26.046 33.204-13.029 1.652-23.642-11.044-30.17-22.373-3.556-12.193-3.054-27.08 7.29-34.589 10.403-8.014 25.797-8.947 36.846-1.68 9.037 5.693 12.312 14.657 12.08 25.436Z"/><path stroke-width="9.219" d="M315.71 452.36a1.786 2.143 0 1 1-3.571 0 1.786 2.143 0 1 1 3.571 0" transform="matrix(.19497 0 0 .24138 5.86 -74.73)"/><path fill="#fff" stroke-width="2" d="M36.59 31.25c7.183-1.342 18.225-4.177 24.507-8.224 4.591-2.958 11.071-6.563 15.136-10.704 6.132 7.439 8.98 12.448 17.857 17.143C92.268-1.238 63.635-4.886 46.653 8.01 39.736 13.264 36.51 20.179 36.59 31.25ZM90.64 80.44l-15.27-.927C66.056 99.371 61.298 87.851 54.817 79.514c-4.67-.356-11.857.746-17.473 2.282-7.413 15.453-11.789 32.187-16.094 48.75h13.562l66.857-.505c-4.754-35.732-4.475-31.113-11.03-49.6Z"/><path stroke-width="2" d="m43.04 102.17-5.74 27.291"/><path fill="#fff" stroke-width="1.6" d="M63.02 53.75c6.336 10.528 12.093 7.334 15.714-1.071-4.693 1.447-10.074 1.519-15.714 1.071"/><path stroke-width="9.219" d="M315.71 452.36a1.786 2.143 0 1 1-3.571 0 1.786 2.143 0 1 1 3.571 0" transform="matrix(.19497 0 0 .24138 14.67 -75.08)"/><path fill="#fff" stroke-width="1.5" d="M69.74 43.6c.895 1.618 3.936 1.752 5.84-.274"/><path stroke-width="2" d="m82.76 101.45 2.341 20.725"/><path fill="#fff" stroke-width="2" d="m19.86 116.79 82.806-.03c6.051 14.018 14.979 34.87 17.439 39.91l-118.82 1.458 18.571-41.338ZM1 158.15v16.429l118.57-.714.77-17.143Z"/><path fill="#fff" stroke-width="2" d="m50.29 122.79-8.571 29.286 42.143-.714-6.429-29.286ZM21.22 129.55l12.007 15.689 6.039 1.134-1.712-7.08-13.002-14.44Z"/></g></svg>