<svg xmlns="http://www.w3.org/2000/svg" xml:space="preserve" id="Capa_1" width="800" height="800" fill="#000" viewBox="0 0 412.862 412.862"><path d="M319.2 99.554H93.663a7.5 7.5 0 0 0-7.5 7.5v143.779a7.5 7.5 0 0 0 7.5 7.5H319.2c4.143 0 7.5-3.357 7.5-7.5V107.054a7.5 7.5 0 0 0-7.5-7.5m-7.5 143.78H101.163v-128.78H311.7Z"/><path d="M411.148 278.481a7.5 7.5 0 0 0-5.785-2.728h-46.241V74.632c0-4.143-3.357-7.5-7.5-7.5H61.242a7.5 7.5 0 0 0-7.5 7.5v201.121H7.5a7.5 7.5 0 0 0-7.363 8.925c.378 1.955 9.662 48.014 44.269 60.6a7.5 7.5 0 0 0 2.563.452h318.924c.875 0 1.742-.153 2.565-.452 34.605-12.586 43.891-58.645 44.268-60.6a7.5 7.5 0 0 0-1.578-6.197M68.742 82.132h275.38v193.621H68.742ZM364.506 330.73H48.356c-17.873-7.233-27.065-27.954-31.021-39.977h378.191c-3.956 12.027-13.149 32.744-31.02 39.977"/><path d="M331.225 318.246c-1.97 0-3.91-.8-5.3-2.2a7.53 7.53 0 0 1-2.2-5.3c0-1.98.801-3.91 2.2-5.31a7.56 7.56 0 0 1 5.3-2.19c1.98 0 3.91.8 5.301 2.19a7.55 7.55 0 0 1 2.199 5.31c0 1.97-.8 3.9-2.199 5.3a7.53 7.53 0 0 1-5.301 2.2M356.885 318.246c-1.97 0-3.9-.8-5.3-2.2a7.53 7.53 0 0 1-2.2-5.3c0-1.98.8-3.91 2.2-5.31a7.58 7.58 0 0 1 5.3-2.19c1.98 0 3.91.8 5.311 2.19a7.58 7.58 0 0 1 2.189 5.31c0 1.97-.8 3.9-2.189 5.3a7.55 7.55 0 0 1-5.311 2.2"/></svg>