<?xml version="1.0" encoding="iso-8859-1"?><!-- Uploaded to: SVG Repo, www.svgrepo.com, Generator: SVG Repo Mixer Tools --><!DOCTYPE svg><svg xmlns="http://www.w3.org/2000/svg" xmlns:xlink="http://www.w3.org/1999/xlink" fill="#000000" height="800px" width="800px" version="1.1" id="Capa_1" viewBox="0 0 412.862 412.862" xml:space="preserve">
<g>
	<g>
		<g>
			<path d="M319.2,99.554H93.663c-4.142,0-7.5,3.357-7.5,7.5v143.779c0,4.143,3.358,7.5,7.5,7.5H319.2c4.143,0,7.5-3.357,7.5-7.5
				V107.054C326.7,102.912,323.342,99.554,319.2,99.554z M311.7,243.334H101.163V114.554H311.7V243.334z"/>
			<path d="M411.148,278.481c-1.425-1.728-3.546-2.728-5.785-2.728h-46.241V74.632c0-4.143-3.357-7.5-7.5-7.5H61.242
				c-4.142,0-7.5,3.357-7.5,7.5v201.121H7.5c-2.239,0-4.36,1-5.785,2.728c-1.425,1.727-2.003,4-1.578,6.197
				c0.378,1.955,9.662,48.014,44.269,60.6c0.822,0.299,1.689,0.452,2.563,0.452h318.924c0.875,0,1.742-0.153,2.565-0.452
				c34.605-12.586,43.891-58.645,44.268-60.6C413.151,282.481,412.573,280.208,411.148,278.481z M68.742,82.132h275.38v193.621
				H68.742V82.132z M364.506,330.73H48.356c-17.873-7.233-27.065-27.954-31.021-39.977h378.191
				C391.57,302.78,382.377,323.497,364.506,330.73z"/>
		</g>
		<g>
			<g>
				<path d="M331.225,318.246c-1.97,0-3.91-0.8-5.3-2.2c-1.399-1.39-2.2-3.33-2.2-5.3c0-1.98,0.801-3.91,2.2-5.31
					c1.39-1.39,3.33-2.19,5.3-2.19c1.98,0,3.91,0.8,5.301,2.19c1.399,1.4,2.199,3.33,2.199,5.31c0,1.97-0.8,3.9-2.199,5.3
					C335.135,317.446,333.196,318.246,331.225,318.246z"/>
			</g>
			<g>
				<path d="M356.885,318.246c-1.97,0-3.9-0.8-5.3-2.2c-1.4-1.39-2.2-3.33-2.2-5.3c0-1.98,0.8-3.91,2.2-5.31
					c1.399-1.39,3.33-2.19,5.3-2.19c1.98,0,3.91,0.8,5.311,2.19c1.39,1.4,2.189,3.33,2.189,5.31c0,1.97-0.8,3.9-2.189,5.3
					C360.795,317.446,358.866,318.246,356.885,318.246z"/>
			</g>
		</g>
	</g>
</g>
</svg>