<svg xmlns="http://www.w3.org/2000/svg" xml:space="preserve" id="Capa_1" width="800" height="800" fill="#000" viewBox="0 0 31.783 31.783"><path d="M3.026 19.05s.292-1.205-.714-2.244C1.305 15.764.045 15.764.045 15.764s-.307 1.417.675 2.431c.983 1.013 2.306.855 2.306.855M18.404 20.029V8.978H15.8q-.031.684-.326 1.151a2.26 2.26 0 0 1-.753.746 3.3 3.3 0 0 1-1.033.397 5 5 0 0 1-1.175.104v2.286h2.589v6.367Z"/><path d="M8.284 14.196a7.7 7.7 0 0 1-.13-1.385c0-4.278 3.461-7.759 7.73-7.796v.004c4.278.028 7.749 3.514 7.749 7.797 0 .474-.049.935-.13 1.385h1.957c.064-.454.109-.913.109-1.385 0-5.345-4.331-9.696-9.667-9.734v-.006c-5.345.028-9.685 4.384-9.685 9.735 0 .472.045.931.11 1.385Z"/><path d="M5.236 18.822s1.169-.643 1.377-2.037c.208-1.396-.867-2.37-.867-2.37s-1.023.734-1.237 2.166c-.213 1.43.727 2.241.727 2.241M6.003 20.2c-.024 1.446 1.013 2.127 1.013 2.127s1.075-.79 1.1-2.2c.023-1.41-1.169-2.236-1.169-2.236s-.92.86-.944 2.309M9.177 19.931s-.834.944-.723 2.389c.112 1.443 1.208 2.021 1.208 2.021s.997-.886.889-2.293c-.11-1.406-1.374-2.117-1.374-2.117M12.985 26.08s.7-1.137.191-2.453c-.51-1.314-1.926-1.631-1.926-1.631s-.527 1.145-.004 2.495 1.739 1.589 1.739 1.589M3.5 15.963s.913-.84.652-2.264c-.259-1.423-1.307-2.123-1.307-2.123s-1.041 1.009-.787 2.398c.253 1.387 1.442 1.989 1.442 1.989M4.25 21.777s-.076-1.238-1.344-1.936-2.473-.326-2.473-.326.125 1.444 1.362 2.125c1.235.68 2.455.137 2.455.137M6.395 24.173s-.349-1.189-1.74-1.588c-1.393-.396-2.484.231-2.484.231s.443 1.381 1.799 1.769c1.357.387 2.425-.412 2.425-.412M8.787 25.876s-.693-1.027-2.14-.986-2.297.972-2.297.972.84 1.183 2.25 1.142 2.187-1.128 2.187-1.128M9.81 26.572c-1.432.215-2.165 1.238-2.165 1.238s.976 1.074 2.371.865c1.396-.211 2.036-1.381 2.036-1.381s-.813-.938-2.242-.722"/><path d="m3.975 16.667-.689-.023c-.003.074-.138 7.559 11.168 10.875l.194-.662C3.882 23.699 3.965 16.954 3.975 16.667M28.758 19.056s1.325.158 2.306-.855c.981-1.014.675-2.431.675-2.431s-1.26 0-2.267 1.041c-1.006 1.038-.714 2.245-.714 2.245M25.171 16.79c.208 1.396 1.377 2.037 1.377 2.037s.939-.81.727-2.241-1.236-2.166-1.236-2.166-1.076.974-.868 2.37M23.669 20.132c.023 1.409 1.1 2.199 1.1 2.199s1.037-.68 1.013-2.127c-.023-1.447-.942-2.309-.942-2.309s-1.194.827-1.171 2.237M21.232 22.054c-.107 1.407.89 2.293.89 2.293s1.097-.578 1.208-2.021-.724-2.389-.724-2.389-1.263.711-1.374 2.117M18.608 23.632c-.508 1.317.192 2.453.192 2.453s1.217-.238 1.739-1.589c.521-1.351-.004-2.495-.004-2.495s-1.416.317-1.927 1.631M29.728 13.979c.254-1.389-.787-2.398-.787-2.398s-1.048.7-1.308 2.124.652 2.264.652 2.264 1.19-.602 1.443-1.99M28.88 19.847c-1.269.697-1.344 1.936-1.344 1.936s1.219.543 2.456-.137c1.235-.68 1.361-2.125 1.361-2.125s-1.205-.371-2.473.326M27.131 22.591c-1.392.397-1.74 1.588-1.74 1.588s1.068.799 2.425.412c1.356-.389 1.799-1.77 1.799-1.77s-1.092-.628-2.484-.23M25.138 24.894c-1.446-.041-2.14.988-2.14.988s.775 1.086 2.187 1.127c1.41.041 2.25-1.143 2.25-1.143s-.849-.929-2.297-.972M21.976 26.577c-1.431-.215-2.242.724-2.242.724s.641 1.17 2.036 1.381c1.396.207 2.371-.864 2.371-.864s-.733-1.026-2.165-1.241"/><path d="m28.501 16.649-.689.024c.009.285.091 7.03-10.673 10.189l.194.663c11.306-3.317 11.17-10.801 11.168-10.876"/></svg>