<svg xmlns="http://www.w3.org/2000/svg" xml:space="preserve" id="Capa_1" fill="#000" viewBox="0 0 60 60"><path d="M35 0H21c-.6 0-1 .4-1 1v58c0 .6.4 1 1 1h14c.6 0 1-.4 1-1V1c0-.6-.4-1-1-1m-1 58H22v-5h5v-2h-5v-5h5v-2h-5v-4h5v-2h-5v-4h5v-2h-5v-5h5v-2h-5v-4h5v-2h-5v-4h5v-2h-5V9h5V7h-5V2h12ZM10.9.6c-.1-.4-.5-.6-.9-.6s-.8.2-.9.6l-5 11.8c-.1.1-.1.3-.1.4V59c0 .6.4 1 1 1h10c.6 0 1-.4 1-1V12.8c0-.1 0-.3-.1-.4Zm-.9 3 4 9.4v38h-3V16H9v35H6V14h5v-2H6.4ZM6 58v-5h8v5ZM55 28H40c-.6 0-1 .4-1 1v30c0 .6.4 1 1 1h15c.6 0 1-.4 1-1V29c0-.6-.4-1-1-1m-1 30H41V39h12v-2H41v-7h13Z"/><path d="M43 50h3v2h-3ZM43 53h6v2h-6Z"/></svg>