<?xml version='1.0' encoding='utf-8'?><svg xmlns="http://www.w3.org/2000/svg" viewBox="0 0 121.34 175.58"> <g transform="translate(-388.64 -317.43)" stroke="#000" stroke-dashoffset="1.5" stroke-linecap="round" stroke-linejoin="round"> <path d="m424.52 351.54c-7.5908 2.696-5.9292 11.065 0.7143 10.714l-0.7143-10.714z" fill="#fff" stroke-width="2"/> <path d="m482.56 359.69c7.6697-2.4626 6.2648-10.878-0.3863-10.731l0.3863 10.731z" fill="#fff" stroke-width="2"/> <path d="m425.59 354.75-1.1735 22.2c-0.4422 6.601-0.8843 7.4548-1.3265 10.657 14.581 3.5813 30.528 2.3089 49.594 0.4737 4.6849-0.4509 7.9035-1.7786 11.835-2.9737l-0.8912-9.9892-2.6802-27.868-55.357 7.5z" fill="#fff" stroke-width="2"/> <path d="m444.87 387.61c-0.5952 4.2857-3.6905 18.929-4.2857 23.214 6.9048 7.3128 19.524 3.5276 26.429-0.3571-0.4762-5.637-4.1667-21.025-4.6429-25.714l-17.5 2.8571z" fill="#fff" stroke-width="2"/> <path d="m483.09 355.11c0.406 16.354-9.7281 29.916-26.046 33.204-13.029 1.6519-23.642-11.044-30.17-22.373-3.5564-12.193-3.0544-27.08 7.2904-34.589 10.403-8.0136 25.797-8.9467 36.846-1.6798 9.0367 5.6923 12.312 14.657 12.079 25.436z" fill="#fff" stroke-width="2"/> <path transform="matrix(.19497 0 0 .24138 394.5 242.7)" d="m315.71 452.36a1.7857 2.1429 0 1 1-3.5714 0 1.7857 2.1429 0 1 1 3.5714 0z" stroke-width="9.2192"/> <path d="m425.23 348.68c7.1829-1.3418 18.225-4.1774 24.507-8.2243 4.5911-2.9577 11.071-6.5626 15.136-10.704 6.1325 7.439 8.9804 12.448 17.857 17.143-1.8224-30.703-30.455-34.351-47.437-21.454-6.9167 5.2532-10.143 12.168-10.063 23.24z" fill="#fff" stroke-width="2"/> <path d="m479.28 397.87-15.27-0.9266c-9.314 19.858-14.072 8.338-20.553 0-4.6709-0.3561-11.857 0.7459-17.473 2.2813-7.413 15.453-11.789 32.187-16.094 48.75h13.562l66.857-0.5051c-4.7536-35.732-4.4745-31.113-11.03-49.6z" fill="#fff" stroke-width="2"/> <path d="m425.95 400.11" fill="#fff" stroke-width="2"/> <path d="m431.68 419.6-5.7397 27.291" stroke-width="2"/> <path d="m451.66 371.18c6.336 10.528 12.093 7.3342 15.714-1.0714-4.6928 1.4478-10.074 1.5192-15.714 1.0714z" fill="#fff" stroke-width="1.6"/> <path transform="matrix(.19497 0 0 .24138 403.31 242.35)" d="m315.71 452.36a1.7857 2.1429 0 1 1-3.5714 0 1.7857 2.1429 0 1 1 3.5714 0z" stroke-width="9.2192"/> <path d="m458.38 361.03c0.8946 1.6175 3.9358 1.7518 5.8406-0.2742" fill="#fff" stroke-width="1.5"/> <path d="m471.4 418.88 2.3415 20.725" stroke-width="2"/> <path d="m408.5 434.22 82.806-0.0294c6.051 14.017 14.979 34.87 17.439 39.909l-118.82 1.458 18.571-41.338z" fill="#fff" stroke-width="2"/> <path d="m389.64 475.58v16.429l118.57-0.7143 0.7703-17.143-119.34 1.4286z" fill="#fff" stroke-width="2"/> <path d="m438.93 440.22-8.5714 29.286 42.143-0.7143-6.4286-29.286-27.143 0.7143z" fill="#fff" stroke-width="2"/> <path d="m409.86 446.98 12.007 15.689 6.0389 1.1343-1.7116-7.0804-13.002-14.439-3.3323 4.6967z" fill="#fff" stroke-width="2"/> </g> </svg>