<svg xmlns="http://www.w3.org/2000/svg" id="zoom-square" width="800" height="800" fill="#fff" stroke="#fff" class="icon flat-line" data-name="Flat Line" viewBox="0 0 24 24"><g id="SVGRepo_iconCarrier"><path id="secondary" d="M20 3H4a1 1 0 0 0-1 1v16a1 1 0 0 0 1 1h16a1 1 0 0 0 1-1V4a1 1 0 0 0-1-1Zm-3 10.38a1 1 0 0 1-1.45.9L13 13v1a1 1 0 0 1-1 1H9a2 2 0 0 1-2-2v-3a1 1 0 0 1 1-1h3a2 2 0 0 1 2 2l2.55-1.28a1 1 0 0 1 1.45.9Z" style="fill:#2ca9bcffffff;stroke-width:2px"/><path id="primary" d="M13 14v-3a2 2 0 0 0-2-2H8a1 1 0 0 0-1 1v3a2 2 0 0 0 2 2h3a1 1 0 0 0 1-1m0-1 2.55 1.28a1 1 0 0 0 1.45-.9v-2.76a1 1 0 0 0-1.45-.9L13 11Zm7 8H4a1 1 0 0 1-1-1V4a1 1 0 0 1 1-1h16a1 1 0 0 1 1 1v16a1 1 0 0 1-1 1" style="fill:none;stroke:#000;stroke-linecap:round;stroke-linejoin:round;stroke-width:2px"/></g></svg>